USFL
nRows=114
nColumns=2
inDegrees=yes
endheader
time	med_gas_r	
2.71976	 37.533565	
2.79133	 37.590733	
2.8629	 37.545917	
2.93448	 37.566919	
3.00605	 37.478213	
3.07762	 37.532054	
3.14919	 37.502799	
3.22077	 37.537676	
3.29234	 37.552752	
3.36391	 37.493280	
3.43548	 37.489014	
3.50706	 37.511734	
3.57863	 37.566421	
3.6502	 37.509025	
3.72177	 37.523120	
3.79335	 37.424278	
3.86492	 37.563478	
3.93649	 37.549334	
4.00806	 37.582592	
4.07964	 37.411679	
4.15121	 37.371186	
4.22278	 37.237601	
4.29435	 37.415523	
4.36593	 37.436496	
4.4375	 37.506011	
4.50907	 37.660575	
4.58065	 37.537816	
4.65222	 37.570712	
4.72379	 37.590592	
4.79536	 37.480027	
4.86694	 36.464343	
4.93851	 29.101266	
5.01008	 26.660848	
5.08165	 23.625531	
5.15323	 23.226138	
5.2248	 22.782667	
5.29637	 22.762318	
5.36794	 22.877725	
5.43952	 23.312798	
5.51109	 22.840825	
5.58266	 22.973242	
5.65423	 22.696657	
5.72581	 21.521827	
5.79738	 21.096825	
5.86895	 20.859241	
5.94052	 21.029131	
6.0121	 20.707556	
6.08367	 20.837274	
6.15524	 20.553650	
6.22681	 20.201498	
6.29839	 20.030808	
6.36996	 20.138040	
6.44153	 19.935658	
6.5131	 20.037878	
6.58468	 19.839660	
6.65625	 19.935721	
6.72782	 19.925965	
6.7994	 20.065100	
6.87097	 20.011722	
6.94254	 20.138544	
7.01411	 20.135653	
7.08569	 20.190249	
7.15726	 20.179187	
7.22883	 20.210908	
7.3004	 20.181416	
7.37198	 20.166168	
7.44355	 20.188744	
7.51512	 20.211218	
7.58669	 20.134451	
7.65827	 20.273380	
7.72984	 20.273096	
7.80141	 20.186654	
7.87298	 20.362919	
7.94456	 20.307850	
8.01613	 20.183693	
8.0877	 20.127556	
8.15927	 20.302043	
8.23085	 20.218151	
8.30242	 20.174969	
8.37399	 19.634430	
8.44556	 19.686130	
8.51714	 19.979544	
8.58871	 19.858208	
8.66028	 19.885516	
8.73185	 19.754982	
8.80343	 19.831607	
8.875	 19.672561	
8.94657	 19.691034	
9.01815	 19.498226	
9.08972	 19.503424	
9.16129	 19.459533	
9.23286	 19.572566	
9.30444	 19.663407	
9.37601	 19.679921	
9.44758	 19.712820	
9.51915	 19.669050	
9.59073	 19.307864	
9.6623	 19.271201	
9.73387	 19.164216	
9.80544	 19.186578	
9.87702	 19.598537	
9.94859	 23.689930	
10.0202	 27.518883	
10.0917	 30.587534	
10.1633	 30.960757	
10.2349	 30.853993	
10.3065	 31.120110	
10.378	 31.509172	
10.4496	 31.218346	
10.5212	 31.483868	
10.5927	 31.445893	
10.6643	 31.538457	
10.7359	 32.027188	
10.8075	 31.825682	
